<?xml version="1.0" standalone="no"?>
<!DOCTYPE svg PUBLIC "-//W3C//DTD SVG 20010904//EN"
 "http://www.w3.org/TR/2001/REC-SVG-20010904/DTD/svg10.dtd">
<svg version="1.0" xmlns="http://www.w3.org/2000/svg"
 width="432.000000pt" height="432.000000pt" viewBox="0 0 432.000000 432.000000"
 preserveAspectRatio="xMidYMid meet">
<metadata>
Created by potrace 1.14, written by Peter Selinger 2001-2017
</metadata>
<g transform="translate(0.000000,432.000000) scale(0.100000,-0.100000)"
fill="#000000" stroke="none">
<path d="M1975 4243 c-119 -50 -225 -141 -225 -194 0 -36 -20 -29 -52 17 -58
82 -55 78 -56 63 -3 -59 -44 -152 -75 -174 -30 -21 -59 1 -72 56 l-11 43 -50
-60 c-28 -33 -60 -77 -73 -97 -12 -20 -25 -37 -27 -37 -8 0 -141 56 -187 78
-5 2 7 -20 27 -49 46 -70 54 -104 31 -129 -20 -22 -55 -21 -115 2 -19 8 -42
13 -50 12 -8 -1 -23 -2 -32 -3 -31 -2 -64 -45 -99 -131 -27 -66 -39 -86 -56
-88 -26 -4 -36 21 -36 92 0 46 -1 48 -14 30 -8 -10 -28 -46 -43 -79 -15 -33
-49 -104 -74 -158 -54 -116 -99 -162 -122 -126 -7 12 15 89 26 89 4 0 10 10
13 21 6 21 5 20 -20 -2 -37 -35 -57 -81 -89 -203 -31 -123 -55 -160 -92 -145
-13 5 -33 30 -47 61 -14 30 -26 46 -29 37 -11 -36 -16 -74 -22 -165 -3 -54
-10 -108 -16 -119 -30 -57 -70 -71 -103 -35 -14 16 -18 38 -19 110 -1 93 -8
114 -21 58 -21 -99 -25 -231 -11 -378 5 -47 10 -99 11 -117 3 -39 -29 -113
-49 -113 -16 0 -46 26 -46 41 0 5 -4 9 -9 9 -17 0 -1 -141 24 -217 14 -41 39
-101 56 -135 69 -136 26 -227 -73 -157 -16 11 -28 18 -28 15 0 -2 32 -44 71
-92 80 -101 96 -128 104 -175 7 -40 -11 -123 -31 -140 -21 -18 -17 -24 18 -25
37 -2 63 -29 72 -77 13 -70 -33 -116 -116 -118 -30 0 -29 -1 17 -16 28 -8 57
-18 65 -21 8 -3 17 -6 20 -7 35 -8 125 -43 163 -62 64 -32 63 -64 -5 -137 -10
-11 -15 -23 -11 -26 5 -4 87 -60 183 -125 96 -65 177 -120 180 -124 3 -3 21
-18 40 -32 81 -61 130 -121 109 -134 -24 -16 -154 31 -236 86 -47 30 -43 10
20 -95 97 -163 179 -240 287 -270 30 -9 123 -27 205 -41 248 -42 315 -62 315
-91 0 -12 -52 -32 -71 -27 -3 1 -37 4 -75 7 l-69 5 95 -29 c127 -40 288 -70
373 -71 61 -1 75 3 120 31 94 59 189 49 116 -11 l-34 -28 30 3 c62 8 92 20
164 68 56 37 83 48 113 48 63 0 64 -43 3 -123 l-36 -47 63 44 c91 64 192 112
299 142 92 26 177 63 289 124 90 49 124 32 77 -39 -14 -21 -23 -41 -20 -45 7
-6 49 16 79 42 35 30 104 138 130 203 29 77 44 93 164 181 52 39 111 85 130
104 50 47 93 62 180 62 82 0 79 -2 94 82 16 92 63 167 155 249 68 61 98 103
102 146 3 37 -1 45 -26 55 -49 19 -62 107 -26 177 11 23 56 77 100 120 91 92
143 186 169 311 15 74 11 133 -7 104 -9 -15 -67 -33 -86 -26 -10 4 -7 16 12
50 44 78 58 174 40 264 -6 28 -25 78 -27 70 -1 -3 -3 -16 -6 -30 -9 -53 -38
-129 -86 -227 -51 -104 -74 -132 -57 -67 23 83 38 245 34 379 -2 77 -6 151 -9
164 -23 101 -71 192 -166 317 -103 135 -108 154 -98 359 5 85 -13 184 -49 273
-25 62 -79 162 -89 162 -2 0 -1 -24 2 -52 12 -92 8 -330 -5 -370 -19 -57 -27
-53 -28 15 0 38 -9 84 -22 117 -22 55 -97 171 -116 177 -5 1 -10 -12 -11 -30
-1 -60 -13 -87 -37 -87 -27 0 -64 32 -78 66 -11 30 -5 86 15 125 15 29 3 41
-19 20 -6 -5 -31 -13 -56 -19 -55 -11 -101 4 -119 38 -13 24 1 50 26 50 8 0
14 4 14 9 0 5 -41 8 -92 7 -103 -4 -171 -24 -232 -71 -50 -38 -101 -54 -144
-44 -50 11 -58 23 -37 56 10 15 31 42 47 58 15 17 28 37 29 45 1 8 2 22 3 30
5 44 -57 115 -130 149 -50 24 -96 26 -174 8 -83 -19 -178 -12 -181 14 -1 5 -2
15 -3 22 -2 15 12 37 54 83 30 33 31 36 9 29 -55 -17 -120 -61 -163 -111 -34
-39 -56 -55 -81 -60 -54 -10 -85 2 -85 32 0 29 24 80 53 111 11 13 19 25 16
27 -2 2 -31 -7 -64 -21z m105 -375 c58 -29 112 -57 120 -63 24 -18 180 -86
230 -100 45 -13 120 -26 120 -20 0 2 -20 15 -45 29 -64 38 -99 75 -85 91 30
36 57 24 201 -86 85 -65 134 -91 203 -108 75 -18 131 -51 256 -148 63 -50 136
-98 162 -108 54 -20 79 -41 113 -95 28 -44 87 -208 106 -295 7 -34 14 -51 17
-40 13 66 25 96 44 106 16 9 22 8 29 -2 16 -26 8 -116 -18 -204 -5 -19 -4 -19
19 2 38 36 83 48 109 30 57 -41 163 -215 157 -259 -3 -21 -7 -23 -63 -21 -33
0 -96 10 -140 22 -43 11 -80 19 -81 18 -2 -1 7 -22 19 -45 36 -70 98 -137 165
-178 145 -89 180 -130 186 -216 5 -72 -9 -102 -90 -180 -74 -72 -114 -124
-114 -148 0 -6 18 8 40 33 38 43 91 73 104 60 15 -15 2 -37 -63 -106 -70 -75
-97 -114 -87 -124 3 -3 12 2 21 11 24 24 74 48 85 41 17 -10 11 -30 -25 -91
-35 -58 -48 -107 -22 -86 25 21 40 -3 34 -55 -10 -80 -62 -163 -115 -184 l-24
-9 22 -18 c50 -40 11 -72 -256 -208 -140 -72 -162 -85 -126 -80 44 6 112 -13
112 -32 0 -18 -44 -53 -135 -107 -129 -75 -207 -144 -131 -115 87 33 102 7 32
-58 -53 -49 -129 -89 -185 -98 -30 -5 -41 -11 -41 -24 0 -35 -45 -50 -190 -65
-36 -3 -78 -8 -95 -10 -16 -3 -68 -9 -115 -15 -142 -17 -149 -19 -213 -37 -85
-24 -167 -21 -255 10 -71 26 -72 26 -57 4 8 -12 15 -29 15 -38 0 -43 -71 -27
-165 36 l-65 43 -21 -30 c-28 -39 -79 -61 -113 -48 -24 9 -145 105 -176 139
-42 47 -243 171 -256 158 -2 -2 16 -18 41 -36 55 -39 105 -91 105 -109 0 -49
-106 6 -225 117 -22 20 -62 57 -89 81 -48 44 -49 45 -32 13 73 -143 -274 212
-392 400 -34 55 -57 143 -69 262 -6 66 -7 68 -17 38 -15 -44 -23 -49 -47 -27
-29 26 -61 92 -95 194 -25 76 -28 98 -27 211 1 69 4 143 7 164 l7 39 -24 -22
c-48 -46 -70 -18 -72 91 -2 91 13 162 44 205 23 33 38 69 46 110 3 15 11 54
19 87 8 33 13 61 11 63 -2 2 -12 -17 -23 -42 -12 -25 -30 -55 -41 -67 -19 -21
-21 -21 -27 -4 -8 21 13 86 62 193 39 85 41 91 15 68 -11 -10 -27 -16 -35 -14
-13 2 -8 20 28 93 50 101 128 196 187 226 36 18 38 21 24 35 -8 9 -15 23 -15
33 0 21 79 97 172 166 58 43 65 51 56 68 -15 29 6 88 44 126 38 37 98 67 221
110 89 31 111 37 182 50 30 6 36 10 23 15 -10 5 -15 13 -11 19 4 6 0 8 -10 4
-10 -4 -24 -10 -32 -13 -8 -3 -15 -2 -15 4 0 5 17 17 38 25 85 34 138 44 217
40 161 -9 308 -3 324 12 2 3 -20 5 -50 5 -31 0 -63 6 -74 14 -18 13 -18 14 4
26 38 20 90 27 226 29 68 2 69 2 40 16 -55 25 -60 31 -45 50 18 22 43 15 170
-47z"/>
<path d="M2406 3638 c-7 -13 -34 -54 -58 -93 -24 -38 -55 -88 -68 -110 -13
-22 -28 -41 -32 -43 -4 -2 -8 -8 -8 -14 0 -5 -15 -33 -34 -61 -76 -118 -156
-249 -156 -258 0 -5 -3 -9 -7 -9 -5 0 -21 -25 -38 -55 -16 -30 -33 -55 -37
-55 -4 0 -8 -4 -8 -9 0 -5 -30 -57 -67 -116 -56 -90 -70 -106 -87 -102 -12 3
-30 7 -41 10 -21 5 -150 36 -175 42 -8 2 -116 29 -240 60 -124 31 -232 58
-240 60 -8 2 -44 11 -80 20 -36 9 -72 18 -80 20 -8 2 -35 8 -60 15 -25 7 -54
14 -65 16 -54 10 -66 13 -75 19 -28 17 11 -39 87 -125 47 -53 72 -82 99 -116
18 -22 42 -51 55 -65 13 -15 40 -45 58 -69 19 -23 40 -48 46 -54 5 -6 55 -65
110 -131 116 -140 144 -172 168 -197 9 -10 17 -20 17 -22 0 -3 16 -21 35 -41
21 -23 32 -42 27 -50 -9 -14 -217 -349 -252 -405 -99 -158 -166 -266 -169
-275 -2 -5 -15 -24 -28 -41 -12 -17 -23 -36 -23 -42 0 -7 -4 -12 -10 -12 -5 0
-12 -11 -16 -25 -3 -14 -10 -25 -15 -25 -5 0 -9 -4 -9 -9 0 -6 -14 -31 -31
-56 -17 -25 -29 -48 -27 -50 2 -3 65 21 139 51 74 31 140 56 147 57 6 0 12 4
12 9 0 4 3 7 8 6 4 -1 21 5 37 12 17 7 35 14 40 15 6 2 64 25 130 52 133 55
158 65 165 68 25 8 68 27 82 35 10 6 22 10 28 10 5 0 33 11 62 24 29 14 66 28
81 31 15 4 27 11 27 16 0 5 11 9 25 9 14 0 25 4 25 9 0 21 34 2 74 -42 23 -26
40 -47 37 -47 -3 0 -1 -4 4 -8 6 -4 58 -63 115 -132 58 -69 107 -127 110 -130
3 -3 34 -40 70 -82 35 -43 68 -78 72 -78 4 0 8 -6 8 -12 0 -7 17 -31 38 -53
20 -22 79 -91 131 -152 51 -62 95 -113 97 -113 3 0 3 3 1 8 -3 4 -8 61 -12
127 -3 66 -8 140 -10 165 -3 25 -7 83 -10 130 -3 47 -8 112 -11 145 -3 33 -7
87 -9 120 -10 162 -23 342 -29 386 -3 24 18 68 29 62 3 -2 7 -2 10 -2 3 1 8 2
13 3 4 1 24 10 46 19 21 9 41 17 43 17 3 0 19 7 36 15 18 8 57 24 87 36 30 11
66 26 80 32 14 6 27 11 30 12 14 5 67 27 85 35 31 14 269 111 280 114 6 1 32
12 59 24 27 12 52 22 56 22 4 0 34 12 66 27 33 15 61 27 64 28 43 10 66 31 38
33 -7 0 -22 3 -33 5 -11 3 -42 11 -70 17 -54 12 -59 14 -120 30 -22 6 -49 13
-60 15 -41 10 -61 15 -125 30 -36 9 -72 18 -80 20 -8 2 -42 11 -75 21 -33 9
-69 16 -80 16 -10 -1 -24 3 -30 7 -5 4 -39 14 -75 22 -81 17 -72 15 -90 22 -8
3 -58 15 -110 28 -52 12 -102 25 -110 29 -15 8 -16 14 -24 145 -3 44 -8 109
-11 145 -7 82 -14 186 -20 270 -2 36 -7 101 -10 145 -22 280 -25 326 -26 373
0 23 -2 42 -5 42 -2 0 -10 -10 -18 -22z"/>
<path d="M526 2828 c-15 -13 -29 -38 -32 -56 l-7 -33 38 25 c21 14 43 26 49
26 6 0 22 7 34 16 18 13 21 19 11 30 -17 21 -65 17 -93 -8z"/>
<path d="M3702 2248 c-6 -6 -12 -18 -12 -25 0 -13 63 -83 75 -83 10 0 5 65 -8
90 -14 29 -37 36 -55 18z"/>
<path d="M571 1843 c-48 -24 -71 -67 -66 -122 6 -53 13 -63 27 -37 6 11 35 45
64 78 58 62 60 68 42 86 -16 16 -26 15 -67 -5z"/>
<path d="M1896 688 c-19 -26 -20 -57 -5 -92 27 -58 41 -33 52 89 3 28 -28 30
-47 3z"/>
<path d="M2841 4226 c-24 -38 -27 -87 -8 -142 17 -49 16 -77 -9 -169 -3 -11 6
-2 21 20 15 22 41 54 57 71 49 52 51 82 12 156 -18 34 -33 71 -34 81 0 27 -16
20 -39 -17z"/>
<path d="M918 3866 c-23 -17 -36 -53 -30 -83 4 -22 7 -20 48 25 24 26 44 53
44 60 0 16 -40 15 -62 -2z"/>
<path d="M435 3564 c-10 -15 -29 -39 -44 -53 -40 -39 -61 -73 -61 -98 0 -12
13 -50 29 -84 16 -35 28 -71 26 -81 -6 -29 31 -4 51 34 16 31 16 42 -3 170 -3
22 2 57 11 84 19 56 16 65 -9 28z"/>
<path d="M4122 2977 c-31 -32 -38 -93 -20 -149 16 -45 15 -104 -1 -150 -12
-34 -1 -37 18 -5 8 12 31 42 51 67 54 64 55 78 19 146 -17 32 -34 72 -38 87
l-6 29 -23 -25z"/>
<path d="M4255 2330 c-10 -11 -15 -20 -11 -20 3 0 -1 -16 -9 -36 -19 -45 -19
-45 3 -37 60 22 93 71 65 98 -19 20 -26 19 -48 -5z"/>
<path d="M4085 1387 c-29 -14 -69 -74 -84 -125 -8 -27 -28 -58 -59 -87 -45
-44 -50 -55 -14 -35 9 5 43 17 75 26 85 23 107 46 114 119 3 33 11 72 18 88
13 25 12 27 -8 26 -12 -1 -31 -6 -42 -12z"/>
<path d="M250 1012 c0 -6 4 -13 9 -17 5 -3 19 -31 31 -63 41 -113 39 -112 149
-118 41 -2 81 -10 89 -17 13 -10 14 -8 8 18 -12 49 -54 83 -126 105 -36 11
-77 29 -90 41 -14 12 -35 31 -47 42 -13 11 -23 15 -23 9z"/>
<path d="M3140 362 c0 -5 -16 -27 -35 -49 -39 -46 -45 -73 -16 -73 45 0 87 62
74 111 -5 19 -23 27 -23 11z"/>
</g>
</svg>
